<svg xmlns="http://www.w3.org/2000/svg" width="720" height="560" viewBox="0 0 720 560">
<rect width="720" height="560" fill="#fff"/>
<text x="360.0" y="24" text-anchor="middle" font-size="17" font-family="sans-serif">RBJ high_shelf: Rust vs Python (fs=44100 Hz)</text>
<rect x="70" y="60" width="600" height="200" fill="#fff" stroke="#888"/>
<text x="370" y="52" text-anchor="middle" font-size="14" font-family="sans-serif">Magnitude response</text>
<text x="32" y="160" text-anchor="middle" font-size="11" font-family="sans-serif" transform="rotate(-90 32 160)">magnitude (dB)</text>
<line x1="207.8" y1="60" x2="207.8" y2="260" stroke="#eee"/>
<text x="207.8" y="274" text-anchor="middle" font-size="10" font-family="sans-serif">100</text>
<line x1="405.1" y1="60" x2="405.1" y2="260" stroke="#eee"/>
<text x="405.1" y="274" text-anchor="middle" font-size="10" font-family="sans-serif">1000</text>
<line x1="602.3" y1="60" x2="602.3" y2="260" stroke="#eee"/>
<text x="602.3" y="274" text-anchor="middle" font-size="10" font-family="sans-serif">10000</text>
<polyline points="70.00,246.21 72.35,246.21 74.71,246.21 77.06,246.21 79.41,246.21 81.76,246.21 84.12,246.21 86.47,246.21 88.82,246.21 91.18,246.21 93.53,246.21 95.88,246.21 98.24,246.21 100.59,246.21 102.94,246.21 105.29,246.21 107.65,246.21 110.00,246.21 112.35,246.21 114.71,246.21 117.06,246.21 119.41,246.21 121.76,246.21 124.12,246.21 126.47,246.21 128.82,246.21 131.18,246.21 133.53,246.21 135.88,246.21 138.24,246.21 140.59,246.21 142.94,246.21 145.29,246.21 147.65,246.21 150.00,246.21 152.35,246.21 154.71,246.21 157.06,246.21 159.41,246.20 161.76,246.20 164.12,246.20 166.47,246.20 168.82,246.20 171.18,246.20 173.53,246.20 175.88,246.20 178.24,246.20 180.59,246.20 182.94,246.20 185.29,246.20 187.65,246.20 190.00,246.20 192.35,246.20 194.71,246.20 197.06,246.20 199.41,246.19 201.76,246.19 204.12,246.19 206.47,246.19 208.82,246.19 211.18,246.19 213.53,246.18 215.88,246.18 218.24,246.18 220.59,246.17 222.94,246.17 225.29,246.17 227.65,246.16 230.00,246.15 232.35,246.15 234.71,246.14 237.06,246.13 239.41,246.13 241.76,246.12 244.12,246.11 246.47,246.09 248.82,246.08 251.18,246.07 253.53,246.05 255.88,246.03 258.24,246.01 260.59,245.99 262.94,245.96 265.29,245.94 267.65,245.91 270.00,245.87 272.35,245.83 274.71,245.79 277.06,245.74 279.41,245.68 281.76,245.62 284.12,245.56 286.47,245.48 288.82,245.40 291.18,245.30 293.53,245.20 295.88,245.08 298.24,244.96 300.59,244.81 302.94,244.65 305.29,244.47 307.65,244.27 310.00,244.05 312.35,243.80 314.71,243.53 317.06,243.23 319.41,242.89 321.76,242.51 324.12,242.09 326.47,241.63 328.82,241.12 331.18,240.55 333.53,239.92 335.88,239.22 338.24,238.45 340.59,237.60 342.94,236.66 345.29,235.63 347.65,234.49 350.00,233.24 352.35,231.88 354.71,230.39 357.06,228.76 359.41,226.98 361.76,225.05 364.12,222.96 366.47,220.70 368.82,218.27 371.18,215.65 373.53,212.86 375.88,209.87 378.24,206.70 380.59,203.35 382.94,199.82 385.29,196.11 387.65,192.24 390.00,188.21 392.35,184.05 394.71,179.77 397.06,175.38 399.41,170.92 401.76,166.39 404.12,161.83 406.47,157.26 408.82,152.70 411.18,148.19 413.53,143.73 415.88,139.35 418.24,135.09 420.59,130.94 422.94,126.94 425.29,123.09 427.65,119.41 430.00,115.90 432.35,112.57 434.71,109.43 437.06,106.47 439.41,103.70 441.76,101.12 444.12,98.71 446.47,96.48 448.82,94.42 451.18,92.51 453.53,90.76 455.88,89.16 458.24,87.69 460.59,86.35 462.94,85.12 465.29,84.01 467.65,83.00 470.00,82.08 472.35,81.25 474.71,80.49 477.06,79.81 479.41,79.20 481.76,78.64 484.12,78.14 486.47,77.69 488.82,77.29 491.18,76.92 493.53,76.60 495.88,76.30 498.24,76.04 500.59,75.80 502.94,75.59 505.29,75.40 507.65,75.23 510.00,75.07 512.35,74.93 514.71,74.81 517.06,74.70 519.41,74.60 521.76,74.52 524.12,74.44 526.47,74.37 528.82,74.30 531.18,74.25 533.53,74.20 535.88,74.15 538.24,74.11 540.59,74.08 542.94,74.04 545.29,74.02 547.65,73.99 550.00,73.97 552.35,73.95 554.71,73.93 557.06,73.91 559.41,73.90 561.76,73.89 564.12,73.88 566.47,73.87 568.82,73.86 571.18,73.85 573.53,73.84 575.88,73.84 578.24,73.83 580.59,73.83 582.94,73.82 585.29,73.82 587.65,73.82 590.00,73.81 592.35,73.81 594.71,73.81 597.06,73.81 599.41,73.80 601.76,73.80 604.12,73.80 606.47,73.80 608.82,73.80 611.18,73.80 613.53,73.80 615.88,73.80 618.24,73.80 620.59,73.80 622.94,73.79 625.29,73.79 627.65,73.79 630.00,73.79 632.35,73.79 634.71,73.79 637.06,73.79 639.41,73.79 641.76,73.79 644.12,73.79 646.47,73.79 648.82,73.79 651.18,73.79 653.53,73.79 655.88,73.79 658.24,73.79 660.59,73.79 662.94,73.79 665.29,73.79 667.65,73.79 670.00,73.79" fill="none" stroke="#1a6ec7" stroke-width="1.8"/>
<polyline points="70.00,246.21 72.35,246.21 74.71,246.21 77.06,246.21 79.41,246.21 81.76,246.21 84.12,246.21 86.47,246.21 88.82,246.21 91.18,246.21 93.53,246.21 95.88,246.21 98.24,246.21 100.59,246.21 102.94,246.21 105.29,246.21 107.65,246.21 110.00,246.21 112.35,246.21 114.71,246.21 117.06,246.21 119.41,246.21 121.76,246.21 124.12,246.21 126.47,246.21 128.82,246.21 131.18,246.21 133.53,246.21 135.88,246.21 138.24,246.21 140.59,246.21 142.94,246.21 145.29,246.21 147.65,246.21 150.00,246.21 152.35,246.21 154.71,246.21 157.06,246.21 159.41,246.20 161.76,246.20 164.12,246.20 166.47,246.20 168.82,246.20 171.18,246.20 173.53,246.20 175.88,246.20 178.24,246.20 180.59,246.20 182.94,246.20 185.29,246.20 187.65,246.20 190.00,246.20 192.35,246.20 194.71,246.20 197.06,246.20 199.41,246.19 201.76,246.19 204.12,246.19 206.47,246.19 208.82,246.19 211.18,246.19 213.53,246.18 215.88,246.18 218.24,246.18 220.59,246.17 222.94,246.17 225.29,246.17 227.65,246.16 230.00,246.15 232.35,246.15 234.71,246.14 237.06,246.13 239.41,246.13 241.76,246.12 244.12,246.11 246.47,246.09 248.82,246.08 251.18,246.07 253.53,246.05 255.88,246.03 258.24,246.01 260.59,245.99 262.94,245.96 265.29,245.94 267.65,245.91 270.00,245.87 272.35,245.83 274.71,245.79 277.06,245.74 279.41,245.68 281.76,245.62 284.12,245.56 286.47,245.48 288.82,245.40 291.18,245.30 293.53,245.20 295.88,245.08 298.24,244.96 300.59,244.81 302.94,244.65 305.29,244.47 307.65,244.27 310.00,244.05 312.35,243.80 314.71,243.53 317.06,243.23 319.41,242.89 321.76,242.51 324.12,242.09 326.47,241.63 328.82,241.12 331.18,240.55 333.53,239.92 335.88,239.22 338.24,238.45 340.59,237.60 342.94,236.66 345.29,235.63 347.65,234.49 350.00,233.24 352.35,231.88 354.71,230.39 357.06,228.76 359.41,226.98 361.76,225.05 364.12,222.96 366.47,220.70 368.82,218.27 371.18,215.65 373.53,212.86 375.88,209.87 378.24,206.70 380.59,203.35 382.94,199.82 385.29,196.11 387.65,192.24 390.00,188.21 392.35,184.05 394.71,179.77 397.06,175.38 399.41,170.92 401.76,166.39 404.12,161.83 406.47,157.26 408.82,152.70 411.18,148.19 413.53,143.73 415.88,139.35 418.24,135.09 420.59,130.94 422.94,126.94 425.29,123.09 427.65,119.41 430.00,115.90 432.35,112.57 434.71,109.43 437.06,106.47 439.41,103.70 441.76,101.12 444.12,98.71 446.47,96.48 448.82,94.42 451.18,92.51 453.53,90.76 455.88,89.16 458.24,87.69 460.59,86.35 462.94,85.12 465.29,84.01 467.65,83.00 470.00,82.08 472.35,81.25 474.71,80.49 477.06,79.81 479.41,79.20 481.76,78.64 484.12,78.14 486.47,77.69 488.82,77.29 491.18,76.92 493.53,76.60 495.88,76.30 498.24,76.04 500.59,75.80 502.94,75.59 505.29,75.40 507.65,75.23 510.00,75.07 512.35,74.93 514.71,74.81 517.06,74.70 519.41,74.60 521.76,74.52 524.12,74.44 526.47,74.37 528.82,74.30 531.18,74.25 533.53,74.20 535.88,74.15 538.24,74.11 540.59,74.08 542.94,74.04 545.29,74.02 547.65,73.99 550.00,73.97 552.35,73.95 554.71,73.93 557.06,73.91 559.41,73.90 561.76,73.89 564.12,73.88 566.47,73.87 568.82,73.86 571.18,73.85 573.53,73.84 575.88,73.84 578.24,73.83 580.59,73.83 582.94,73.82 585.29,73.82 587.65,73.82 590.00,73.81 592.35,73.81 594.71,73.81 597.06,73.81 599.41,73.80 601.76,73.80 604.12,73.80 606.47,73.80 608.82,73.80 611.18,73.80 613.53,73.80 615.88,73.80 618.24,73.80 620.59,73.80 622.94,73.79 625.29,73.79 627.65,73.79 630.00,73.79 632.35,73.79 634.71,73.79 637.06,73.79 639.41,73.79 641.76,73.79 644.12,73.79 646.47,73.79 648.82,73.79 651.18,73.79 653.53,73.79 655.88,73.79 658.24,73.79 660.59,73.79 662.94,73.79 665.29,73.79 667.65,73.79 670.00,73.79" fill="none" stroke="#b83c1f" stroke-width="1.8" stroke-dasharray="6,4"/>
<polyline points="550.00,74.00 575.00,74.00" fill="none" stroke="#1a6ec7" stroke-width="1.8"/>
<text x="580" y="78" font-size="11" font-family="sans-serif">Rust</text>
<polyline points="550.00,90.00 575.00,90.00" fill="none" stroke="#b83c1f" stroke-width="1.8" stroke-dasharray="6,4"/>
<text x="580" y="94" font-size="11" font-family="sans-serif">Python</text>
<rect x="70" y="320" width="600" height="200" fill="#fff" stroke="#888"/>
<text x="370" y="312" text-anchor="middle" font-size="14" font-family="sans-serif">Phase response</text>
<text x="32" y="420" text-anchor="middle" font-size="11" font-family="sans-serif" transform="rotate(-90 32 420)">phase (deg)</text>
<line x1="207.8" y1="320" x2="207.8" y2="520" stroke="#eee"/>
<text x="207.8" y="534" text-anchor="middle" font-size="10" font-family="sans-serif">100</text>
<line x1="405.1" y1="320" x2="405.1" y2="520" stroke="#eee"/>
<text x="405.1" y="534" text-anchor="middle" font-size="10" font-family="sans-serif">1000</text>
<line x1="602.3" y1="320" x2="602.3" y2="520" stroke="#eee"/>
<text x="602.3" y="534" text-anchor="middle" font-size="10" font-family="sans-serif">10000</text>
<polyline points="70.00,502.69 72.35,502.60 74.71,502.50 77.06,502.39 79.41,502.29 81.76,502.18 84.12,502.06 86.47,501.95 88.82,501.83 91.18,501.71 93.53,501.58 95.88,501.45 98.24,501.32 100.59,501.18 102.94,501.04 105.29,500.90 107.65,500.75 110.00,500.60 112.35,500.44 114.71,500.28 117.06,500.12 119.41,499.95 121.76,499.77 124.12,499.59 126.47,499.41 128.82,499.22 131.18,499.02 133.53,498.82 135.88,498.62 138.24,498.40 140.59,498.18 142.94,497.96 145.29,497.73 147.65,497.49 150.00,497.25 152.35,497.00 154.71,496.74 157.06,496.47 159.41,496.20 161.76,495.92 164.12,495.63 166.47,495.33 168.82,495.03 171.18,494.72 173.53,494.39 175.88,494.06 178.24,493.72 180.59,493.37 182.94,493.01 185.29,492.63 187.65,492.25 190.00,491.86 192.35,491.45 194.71,491.03 197.06,490.61 199.41,490.16 201.76,489.71 204.12,489.24 206.47,488.76 208.82,488.26 211.18,487.75 213.53,487.23 215.88,486.69 218.24,486.13 220.59,485.55 222.94,484.96 225.29,484.35 227.65,483.73 230.00,483.08 232.35,482.41 234.71,481.73 237.06,481.02 239.41,480.29 241.76,479.54 244.12,478.76 246.47,477.96 248.82,477.14 251.18,476.29 253.53,475.41 255.88,474.50 258.24,473.56 260.59,472.60 262.94,471.60 265.29,470.57 267.65,469.50 270.00,468.40 272.35,467.27 274.71,466.09 277.06,464.88 279.41,463.62 281.76,462.32 284.12,460.98 286.47,459.59 288.82,458.15 291.18,456.66 293.53,455.11 295.88,453.52 298.24,451.86 300.59,450.15 302.94,448.37 305.29,446.54 307.65,444.63 310.00,442.66 312.35,440.61 314.71,438.49 317.06,436.30 319.41,434.03 321.76,431.68 324.12,429.24 326.47,426.72 328.82,424.12 331.18,421.42 333.53,418.64 335.88,415.77 338.24,412.82 340.59,409.77 342.94,406.64 345.29,403.43 347.65,400.14 350.00,396.77 352.35,393.33 354.71,389.84 357.06,386.29 359.41,382.70 361.76,379.09 364.12,375.46 366.47,371.84 368.82,368.24 371.18,364.69 373.53,361.21 375.88,357.82 378.24,354.54 380.59,351.41 382.94,348.46 385.29,345.70 387.65,343.18 390.00,340.90 392.35,338.91 394.71,337.21 397.06,335.84 399.41,334.81 401.76,334.12 404.12,333.79 406.47,333.83 408.82,334.23 411.18,334.98 413.53,336.09 415.88,337.53 418.24,339.29 420.59,341.35 422.94,343.69 425.29,346.27 427.65,349.08 430.00,352.09 432.35,355.26 434.71,358.58 437.06,362.02 439.41,365.54 441.76,369.13 444.12,372.76 446.47,376.41 448.82,380.06 451.18,383.70 453.53,387.31 455.88,390.88 458.24,394.39 460.59,397.85 462.94,401.23 465.29,404.54 467.65,407.77 470.00,410.91 472.35,413.97 474.71,416.94 477.06,419.82 479.41,422.61 481.76,425.32 484.12,427.94 486.47,430.47 488.82,432.92 491.18,435.28 493.53,437.57 495.88,439.78 498.24,441.91 500.59,443.97 502.94,445.96 505.29,447.88 507.65,449.74 510.00,451.53 512.35,453.26 514.71,454.94 517.06,456.56 519.41,458.12 521.76,459.64 524.12,461.10 526.47,462.52 528.82,463.89 531.18,465.22 533.53,466.50 535.88,467.75 538.24,468.95 540.59,470.12 542.94,471.26 545.29,472.36 547.65,473.43 550.00,474.46 552.35,475.47 554.71,476.45 557.06,477.40 559.41,478.32 561.76,479.22 564.12,480.09 566.47,480.94 568.82,481.77 571.18,482.57 573.53,483.36 575.88,484.13 578.24,484.87 580.59,485.60 582.94,486.31 585.29,487.00 587.65,487.68 590.00,488.34 592.35,488.99 594.71,489.62 597.06,490.25 599.41,490.85 601.76,491.45 604.12,492.03 606.47,492.60 608.82,493.17 611.18,493.72 613.53,494.26 615.88,494.80 618.24,495.32 620.59,495.84 622.94,496.36 625.29,496.86 627.65,497.36 630.00,497.86 632.35,498.35 634.71,498.83 637.06,499.32 639.41,499.80 641.76,500.27 644.12,500.75 646.47,501.23 648.82,501.71 651.18,502.19 653.53,502.67 655.88,503.15 658.24,503.64 660.59,504.14 662.94,504.64 665.29,505.15 667.65,505.67 670.00,506.21" fill="none" stroke="#1a6ec7" stroke-width="1.8"/>
<polyline points="70.00,502.69 72.35,502.60 74.71,502.50 77.06,502.39 79.41,502.29 81.76,502.18 84.12,502.06 86.47,501.95 88.82,501.83 91.18,501.71 93.53,501.58 95.88,501.45 98.24,501.32 100.59,501.18 102.94,501.04 105.29,500.90 107.65,500.75 110.00,500.60 112.35,500.44 114.71,500.28 117.06,500.12 119.41,499.95 121.76,499.77 124.12,499.59 126.47,499.41 128.82,499.22 131.18,499.02 133.53,498.82 135.88,498.62 138.24,498.40 140.59,498.18 142.94,497.96 145.29,497.73 147.65,497.49 150.00,497.25 152.35,497.00 154.71,496.74 157.06,496.47 159.41,496.20 161.76,495.92 164.12,495.63 166.47,495.33 168.82,495.03 171.18,494.72 173.53,494.39 175.88,494.06 178.24,493.72 180.59,493.37 182.94,493.01 185.29,492.63 187.65,492.25 190.00,491.86 192.35,491.45 194.71,491.03 197.06,490.61 199.41,490.16 201.76,489.71 204.12,489.24 206.47,488.76 208.82,488.26 211.18,487.75 213.53,487.23 215.88,486.69 218.24,486.13 220.59,485.55 222.94,484.96 225.29,484.35 227.65,483.73 230.00,483.08 232.35,482.41 234.71,481.73 237.06,481.02 239.41,480.29 241.76,479.54 244.12,478.76 246.47,477.96 248.82,477.14 251.18,476.29 253.53,475.41 255.88,474.50 258.24,473.56 260.59,472.60 262.94,471.60 265.29,470.57 267.65,469.50 270.00,468.40 272.35,467.27 274.71,466.09 277.06,464.88 279.41,463.62 281.76,462.32 284.12,460.98 286.47,459.59 288.82,458.15 291.18,456.66 293.53,455.11 295.88,453.52 298.24,451.86 300.59,450.15 302.94,448.37 305.29,446.54 307.65,444.63 310.00,442.66 312.35,440.61 314.71,438.49 317.06,436.30 319.41,434.03 321.76,431.68 324.12,429.24 326.47,426.72 328.82,424.12 331.18,421.42 333.53,418.64 335.88,415.77 338.24,412.82 340.59,409.77 342.94,406.64 345.29,403.43 347.65,400.14 350.00,396.77 352.35,393.33 354.71,389.84 357.06,386.29 359.41,382.70 361.76,379.09 364.12,375.46 366.47,371.84 368.82,368.24 371.18,364.69 373.53,361.21 375.88,357.82 378.24,354.54 380.59,351.41 382.94,348.46 385.29,345.70 387.65,343.18 390.00,340.90 392.35,338.91 394.71,337.21 397.06,335.84 399.41,334.81 401.76,334.12 404.12,333.79 406.47,333.83 408.82,334.23 411.18,334.98 413.53,336.09 415.88,337.53 418.24,339.29 420.59,341.35 422.94,343.69 425.29,346.27 427.65,349.08 430.00,352.09 432.35,355.26 434.71,358.58 437.06,362.02 439.41,365.54 441.76,369.13 444.12,372.76 446.47,376.41 448.82,380.06 451.18,383.70 453.53,387.31 455.88,390.88 458.24,394.39 460.59,397.85 462.94,401.23 465.29,404.54 467.65,407.77 470.00,410.91 472.35,413.97 474.71,416.94 477.06,419.82 479.41,422.61 481.76,425.32 484.12,427.94 486.47,430.47 488.82,432.92 491.18,435.28 493.53,437.57 495.88,439.78 498.24,441.91 500.59,443.97 502.94,445.96 505.29,447.88 507.65,449.74 510.00,451.53 512.35,453.26 514.71,454.94 517.06,456.56 519.41,458.12 521.76,459.64 524.12,461.10 526.47,462.52 528.82,463.89 531.18,465.22 533.53,466.50 535.88,467.75 538.24,468.95 540.59,470.12 542.94,471.26 545.29,472.36 547.65,473.43 550.00,474.46 552.35,475.47 554.71,476.45 557.06,477.40 559.41,478.32 561.76,479.22 564.12,480.09 566.47,480.94 568.82,481.77 571.18,482.57 573.53,483.36 575.88,484.13 578.24,484.87 580.59,485.60 582.94,486.31 585.29,487.00 587.65,487.68 590.00,488.34 592.35,488.99 594.71,489.62 597.06,490.25 599.41,490.85 601.76,491.45 604.12,492.03 606.47,492.60 608.82,493.17 611.18,493.72 613.53,494.26 615.88,494.80 618.24,495.32 620.59,495.84 622.94,496.36 625.29,496.86 627.65,497.36 630.00,497.86 632.35,498.35 634.71,498.83 637.06,499.32 639.41,499.80 641.76,500.27 644.12,500.75 646.47,501.23 648.82,501.71 651.18,502.19 653.53,502.67 655.88,503.15 658.24,503.64 660.59,504.14 662.94,504.64 665.29,505.15 667.65,505.67 670.00,506.21" fill="none" stroke="#b83c1f" stroke-width="1.8" stroke-dasharray="6,4"/>
<polyline points="550.00,334.00 575.00,334.00" fill="none" stroke="#1a6ec7" stroke-width="1.8"/>
<text x="580" y="338" font-size="11" font-family="sans-serif">Rust</text>
<polyline points="550.00,350.00 575.00,350.00" fill="none" stroke="#b83c1f" stroke-width="1.8" stroke-dasharray="6,4"/>
<text x="580" y="354" font-size="11" font-family="sans-serif">Python</text>
<text x="70" y="548" font-size="10" font-family="sans-serif">frequency (Hz, log scale)</text>
</svg>
